<?xml version="1.0" encoding="UTF-8"?>
<svg id="Bean" xmlns="http://www.w3.org/2000/svg" viewBox="0 0 133.79 244.04">
  <defs>
    <style>
      .cls-1 {
        fill: #6d3d14;
      }
    </style>
  </defs>
  <path class="cls-1" d="M105.2,14.02c47.85,53.97,33.78,195.44-28.37,224.32-1.35.62-7.39,3.37-8.24,1.81,1.32-5.17,4.01-9.92,5.77-15.09,17.35-51.16-5.5-100.62-11.17-151.44-1.95-17.47-3.16-41.23,1.68-57.95,6.78-23.29,29.11-14.28,40.32-1.64h0Z"/>
  <path class="cls-1" d="M58.02.23c1.78-.29,4-.82,4.45,2.2-6.07,11.75-9.78,25.53-10.91,39.68-4.53,56.76,34.03,133.86,12.73,184.15-13.47,31.82-34.32,15.94-45.27-8.63C-1.68,171.13-7.83,99.4,12.44,51.32,20.42,32.38,40.79,2.99,58.02.23Z"/>
</svg>