<?xml version="1.0" encoding="UTF-8"?>
<svg id="Bean" xmlns="http://www.w3.org/2000/svg" viewBox="0 0 256 256">
  <defs>
    <style>
      .cls-1 {
        fill: #fff7f0;
      }

      .cls-2 {
        fill: #2c1a07;
      }

      .cls-3 {
        fill: #ff6e2f;
      }
    </style>
  </defs>
  <g>
    <path class="cls-3" d="M128,243.5c-63.69,0-115.5-51.81-115.5-115.5S64.31,12.5,128,12.5s115.5,51.81,115.5,115.5-51.81,115.5-115.5,115.5Z"/>
    <path class="cls-1" d="M128,25c56.79,0,103,46.21,103,103s-46.21,103-103,103S25,184.79,25,128,71.21,25,128,25M128,0C57.31,0,0,57.31,0,128s57.31,128,128,128,128-57.31,128-128S198.69,0,128,0h0Z"/>
  </g>
  <g>
    <path class="cls-2" d="M151.79,63.74c28.47,32.11,20.1,116.28-16.88,133.46-.81.37-4.4,2-4.9,1.08.78-3.08,2.39-5.9,3.43-8.98,10.32-30.44-3.27-59.87-6.65-90.1-1.16-10.4-1.88-24.53,1-34.48,4.03-13.86,17.32-8.5,23.99-.98h0Z"/>
    <path class="cls-2" d="M123.72,55.54c1.06-.17,2.38-.49,2.65,1.31-3.61,6.99-5.82,15.19-6.49,23.61-2.69,33.77,20.25,79.64,7.57,109.56-8.02,18.93-20.42,9.48-26.93-5.13-12.32-27.66-15.98-70.34-3.92-98.95,4.75-11.27,16.87-28.75,27.12-30.4Z"/>
  </g>
</svg>